# xmcd
#
# Track frame offsets:
#	150
#	2904
#	21621
#	37378
#	57321
#	78012
#	97055
#	112501
#	132212
#	147619
#	171281
#	193792
#	222211
#	227772
#	249029
#
# Disc length: 3607 seconds
#
# Revision: 0
# Processed by: cddbd v1.5.2PL0 Copyright (c) Steve Scherf et al.
# Submitted via: EasyCDDAExtractor 10.0.6.1
#
DISCID=d00e150f
DTITLE=VictorDémé - Victor Démé
DYEAR=1900
DGENRE=
TTITLE0=Fond de cour
TTITLE1=Djôn'maya
TTITLE2=Toungan
TTITLE3=Chérie
TTITLE4=Denis Mouk Ila
TTITLE5=BurkinaMousso
TTITLE6=Deni Kemba
TTITLE7=Djarabi
TTITLE8=Dankan
TTITLE9=Peuple Burkinabè
TTITLE10=Sabu
TTITLE11=Djabila
TTITLE12=Le passage de l'Arc à Bouche
TTITLE13=Tama Ngnogon
TTITLE14=Dala Môgôya
EXTD=
EXTT0=
EXTT1=
EXTT2=
EXTT3=
EXTT4=
EXTT5=
EXTT6=
EXTT7=
EXTT8=
EXTT9=
EXTT10=
EXTT11=
EXTT12=
EXTT13=
EXTT14=
PLAYORDER=
